<?xml version="1.0" encoding="UTF-8"?>
<svg id="Layer_2" data-name="Layer 2" xmlns="http://www.w3.org/2000/svg" viewBox="0 0 752.49 615.9">
  <defs>
    <style>
      .cls-1 {
        fill: #ddb786;
      }

      .cls-2 {
        fill: none;
        stroke: #ddb786;
        stroke-linecap: round;
        stroke-miterlimit: 10;
        stroke-width: 5.64px;
      }

      .cls-3 {
        fill: #2c338f;
      }
    </style>
  </defs>
  <g id="Layer_1-2" data-name="Layer 1">
    <g>
      <path class="cls-1" d="M749.72,481.34c-1.08,.31-2.47,.19-4.2-.54-.48-.21-.98-.48-1.52-.79h-.02c-1.06-.63-2.24-1.48-3.51-2.58-21.42-21.48-42.53-40.05-63.68-56.03-87.06-65.78-175.09-87.68-291.45-88.16-1.35-.02-2.7-.02-4.05-.02h-.5c-89.53,.08-174.99,24.48-253.16,68.7-18.35,10.4-36.3,21.88-53.81,34.38-18.53,12.46-37.25,26.25-56.14,41.51-.81,.65-1.68,.94-2.51,.94-.52,0-1.04-.1-1.52-.31-.81-.35-1.52-1-1.97-1.77-.41-.69-.64-1.5-.56-2.31,.04-.9,.44-1.81,1.25-2.6,.29-.29,.58-.56,.87-.83,26.06-25.42,57.99-49.93,87.47-70.18,35.82-24.63,68.03-42.97,81.64-48.99,.35-1.17,.73-2.33,1.12-3.5-19.11,2.69-38.23,5.4-57.33,8.08-4.8,.69-10.95,.65-12.9-3.79-2.6-5.81,4.99-10.73,11.07-12.56,77.85-23.28,158.58-36.78,239.73-40.36,1.67-.09,12.51-.44,14.77-.54,60.21-1.77,120.59,1.94,180.12,11.19,8.35,1.29,17.7,2.48,24.54-2.52,1-.73,1.89-1.54,2.72-2.46,2.74-3.02,4.59-6.92,6.36-10.69l41.95-83.95c-3.95-1.4-7.5-1.48-16.71-.08,2.99-7.5,6.01-13.9,9.25-19.88,.17-.29,.31-.56,.46-.83,2.31-4.19,4.76-8.19,7.42-12.23,2.41-3.63,4.99-7.27,7.81-11.13,.02-.02,.04-.04,.06-.06,1.16-1.6,2.37-3.21,3.64-4.9l-.06-.04,.04-.02c1.29-1.83,2.64-3.67,3.97-5.48,22.34,42.51,34.12,53.51,84.92,86,.46,.29,.85,.65,1.21,1.06,.02,.04,.06,.08,.1,.13,.91,1.17,1.48,2.75,1.66,4.4,.42,3.52-.89,7.36-3.95,7.96-.37,.08-.75,.13-1.12,.17-.87,.06-1.72,.04-2.58-.06-3.76-.52-7.38-2.71-10.66-4.81-9.14-5.9-18.31-11.77-27.45-17.67-4.61-2.96-9.97-6.02-15.17-5.94-1.48,.02-2.95,.27-4.38,.88-.62,.27-1.23,.52-1.81,.77-4.14,1.81-7.19,3.63-10.12,7.46-15.65,20.59-30,46.65-40.29,76.62-5.17,15.09-7.9,23.15-10.64,40.01,15.27,15.88,37.48,19.71,90.55,69.08,14.34,13.34,30.92,30.01,50.24,51.11,.25,.29,.48,.6,.69,.92,1.64,2.71,1.04,6.52-1.87,7.31Z"/>
      <g>
        <path class="cls-3" d="M13.23,470.9c26.06-25.42,57.99-49.93,87.47-70.18,35.82-24.63,68.03-42.97,81.64-48.99,.35-1.17,.73-2.33,1.12-3.5-19.11,2.69-38.23,5.4-57.33,8.08-4.8,.69-10.95,.65-12.9-3.79-2.6-5.81,4.99-10.73,11.07-12.56,77.85-23.28,158.58-36.78,239.73-40.36,1.67-.09,12.51-.44,14.77-.54,60.21-1.77,120.59,1.94,180.12,11.19,8.35,1.29,17.7,2.48,24.54-2.52,1-.73,1.89-1.54,2.72-2.46,2.74-3.02,4.59-6.92,6.36-10.69l41.95-83.95c-3.95-1.4-7.5-1.48-16.71-.08,2.99-7.5,6.01-13.9,9.25-19.88,.17-.29,.31-.56,.46-.83,2.31-4.19,4.76-8.19,7.42-12.23,2.41-3.63,4.99-7.27,7.81-11.13,.02-.02,.04-.04,.06-.06,1.16-1.6,2.37-3.21,3.64-4.9l-.06-.04,.04-.02c1.29-1.83,2.64-3.67,3.97-5.48,22.34,42.51,34.12,53.51,84.92,86,.46,.29,.85,.65,1.21,1.06C680.95,100.75,542.86,0,381.29,0,170.71,0,0,171.2,0,382.38c0,30.46,3.55,60.09,10.26,88.52,.27,1.15,.56,2.29,.85,3.44,.04-.9,.44-1.81,1.25-2.6,.29-.29,.58-.56,.87-.83Z"/>
        <path class="cls-3" d="M745.52,480.8c-.48-.21-.98-.48-1.52-.79,.54,.33,1.04,.58,1.52,.79Z"/>
      </g>
      <g>
        <path class="cls-2" d="M645.57,175.54c-27.49-95.95-85.99-127.11-186-95.12"/>
        <path class="cls-2" d="M629.99,200.06c-25.39-87.11-79.02-114.99-171.14-86.03"/>
      </g>
    </g>
    <g>
      <path class="cls-3" d="M67.79,537.94l-10.6,3.9,7.55,50.55c-1.54,2.03-3.64,3.61-6.27,4.75-2.64,1.14-5.91,1.71-9.81,1.71h-11.57c-4.55,0-8.22-.89-11.02-2.68-2.8-1.79-4.71-4.37-5.73-7.73-1.02-3.37-1-7.41,.06-12.12l3.29-15.23H14.07l-3.17,14.74c-1.71,7.31-1.73,13.7-.06,19.19,1.66,5.48,4.77,9.7,9.32,12.67,4.55,2.96,10.23,4.45,17.05,4.45h10.6c6.58,0,12.02-1.26,16.32-3.78,4.3-2.52,7.33-5.79,9.08-9.81,1.75-4.02,2.29-8.34,1.64-12.97l-7.07-47.63Z"/>
      <rect class="cls-3" x="31" y="539.28" width="13.4" height="12.67"/>
      <polygon class="cls-3" points="87.16 590.32 97.76 587.4 97.76 513.7 87.16 516.63 87.16 590.32"/>
      <path class="cls-3" d="M254.29,557.31c-.81-4.95-2.25-9.03-4.32-12.24-2.07-3.21-4.98-5.83-8.71-7.86l-22.54-11.57-2.68,7.19-7.19-1.22c-4.31-.73-8.12-.49-11.45,.73-3.33,1.22-5.97,3.31-7.92,6.27-1.95,2.97-3.13,6.56-3.53,10.78l-2.19,26.07h-24.03l-.09-34.11c0-3.33-1.18-6.01-3.53-8.04l-5.36-4.39-18.64,4.02c-7.55,1.63-13.08,5.1-16.57,10.41-3.49,5.32-4.67,12-3.53,20.04l1.95,13.03c.49,3.49,1.95,6.32,4.39,8.47,2.44,2.15,5.4,3.23,8.89,3.23h14.25c.81,0,1.6-.02,2.38-.06,.77-.04,1.56-.1,2.38-.18l3.51-.48,.27,5.35c-.57,.16-1.1,.34-1.58,.55-.49,.2-.97,.38-1.46,.55-.73,.16-1.79,.49-3.17,.97l-21.56,7.31,3.9,10.84,21.8-7.31c3.65-1.22,6.54-3.41,8.65-6.58,2.07-3.1,3.12-6.55,3.16-10.35h43.01c5.93,0,10.6-1.62,14.01-4.87l32.16,8.04,4.87-5.72c1.38-1.79,2.38-3.74,2.98-5.85,.61-2.11,.71-4.26,.3-6.46l-2.8-16.57Zm-129.49,18.39l-2.19-15.35c-.73-4.63-.29-8.2,1.34-10.72,1.62-2.52,4.63-4.18,9.01-4.99l16.44-3.53v34.6h-24.61Zm89.78-5.24c-.65,1.46-1.67,2.62-3.05,3.47-1.38,.85-3.17,1.36-5.36,1.52h-12.43l1.95-24.73c.32-3.33,1.44-5.7,3.35-7.13,1.91-1.42,4.61-1.93,8.1-1.52l7.31,.85,.97,21.8c.08,2.36-.2,4.26-.85,5.73Zm8.65,2.19c.41-1.05,.67-2.19,.79-3.41s.14-2.52,.06-3.9l-.85-25.09,14.86,8.04c1.71,.81,3.11,2.09,4.2,3.84,1.1,1.75,1.85,3.84,2.25,6.27l3.78,20.71-25.09-6.46Z"/>
      <polygon class="cls-3" points="271.46 590.32 282.06 587.4 282.06 526.13 271.46 529.05 271.46 590.32"/>
      <path class="cls-3" d="M260.07,510.6c-1.99,2.07-2.98,4.65-2.98,7.74v1.58l8.41,3.29v-6.21h24.61l2.8-9.5h-25.09c-3.17,0-5.74,1.04-7.74,3.11Z"/>
      <polygon class="cls-3" points="349.79 515.77 346.38 508.59 329.32 524.79 332.61 532.1 349.79 515.77"/>
      <path class="cls-3" d="M388.65,561.94l-1.22-6.21c-.89-5.2-3.23-9.32-7-12.37-3.78-3.04-8.55-4.57-14.31-4.57h-19.37l20.71-19.86-5.12-10.48-27.9,27.04,6.82,14.74h24.73c3.25,0,5.87,.91,7.86,2.74,1.99,1.83,3.19,4.37,3.59,7.61l1.46,9.01c-1.22,1.87-2.9,3.31-5.06,4.32-2.15,1.02-4.93,1.52-8.34,1.52h-32.52c-3.09,0-5.71-.61-7.86-1.83-2.15-1.22-3.68-3-4.57-5.36-.89-2.35-1.06-5.24-.49-8.65l3.17-18.15h-9.87l-3.17,18.27c-1.06,6.09-.79,11.29,.79,15.59,1.58,4.31,4.28,7.61,8.1,9.93,3.82,2.31,8.49,3.47,14.01,3.47h31.06c5.68,0,10.52-1.18,14.5-3.53,3.98-2.35,6.86-5.58,8.65-9.68,1.79-4.1,2.23-8.63,1.34-13.58Z"/>
      <path class="cls-3" d="M406.8,592.15c-.57,.16-1.1,.36-1.58,.61-.49,.24-.93,.44-1.34,.61-.49,.16-.97,.34-1.46,.55-.49,.2-.97,.38-1.46,.55l-17.18,6.94,4.87,11.33,16.44-6.7c4.06-1.63,7.07-4.12,9.01-7.49,1.95-3.37,2.92-7.78,2.92-13.22v-45.8l-10.23,2.07v50.55Z"/>
      <rect class="cls-3" x="442.12" y="511.51" width="13.4" height="12.67"/>
      <path class="cls-3" d="M499.5,529.54l-10.6,4.87,6.94,35.45c-1.46,1.87-3.33,3.27-5.6,4.2-2.27,.93-5.2,1.4-8.77,1.4h-17.42c-2.76,0-5.06-.91-6.88-2.74s-2.74-4.36-2.74-7.61v-26.92l-10.48,2.07v52.01c-.41,.16-.85,.34-1.34,.55-.49,.2-.89,.38-1.22,.55-.49,.16-1.38,.49-2.68,.97l-17.54,7.07,4.87,11.33,16.69-6.82c3.41-1.38,6.01-3.45,7.8-6.21,1.79-2.76,2.72-6.01,2.8-9.74v-5.48c1.46,1.46,3.12,2.54,4.99,3.23,1.87,.69,3.94,1.04,6.21,1.04h17.05c5.93,0,10.88-1.22,14.86-3.65,3.98-2.44,6.76-5.87,8.34-10.29,1.58-4.42,1.81-9.48,.67-15.17l-5.97-30.09Z"/>
      <rect class="cls-3" x="477.33" y="603.23" width="13.4" height="12.67"/>
      <rect class="cls-3" x="617.41" y="515.53" width="28.99" height="10.72"/>
      <path class="cls-3" d="M742.64,573.88l-2.8-16.57c-.81-4.95-2.25-9.03-4.32-12.24-2.07-3.21-4.98-5.83-8.71-7.86l-22.54-11.57-2.68,7.19-7.19-1.22c-4.31-.73-8.12-.49-11.45,.73-3.33,1.22-5.97,3.31-7.92,6.27-1.95,2.97-3.13,6.56-3.53,10.78l-2.19,26.07h-21.44c-2.92,0-5.34-.95-7.25-2.86-1.91-1.91-2.86-4.32-2.86-7.25v-27.41l-10.48,2.19v26.43c0,1.54,.16,3.07,.49,4.57,.32,1.5,.81,2.95,1.46,4.32h-26.19c-3.9,0-6.9-1.08-9.01-3.23-2.11-2.15-3.17-4.85-3.17-8.1v-50.43l-10.48,2.92,.49,75.77c-1.54,2.03-3.49,3.61-5.85,4.75-2.36,1.14-5.28,1.71-8.77,1.71h-5.12c-4.47,0-8.12-.89-10.96-2.68-2.84-1.79-4.75-4.35-5.72-7.67-.97-3.33-.93-7.43,.12-12.3l3.17-15.1h-9.5l-3.29,14.74c-1.71,7.31-1.73,13.7-.06,19.19,1.66,5.48,4.73,9.7,9.2,12.67,4.47,2.96,10.11,4.45,16.93,4.45h3.78c5.77,0,10.52-1.04,14.25-3.11,3.73-2.07,6.52-4.67,8.34-7.8,1.83-3.13,2.9-6.23,3.23-9.32,0-1.46,.04-2.88,.12-4.26,.08-1.38,.12-2.76,.12-4.14,1.46,1.54,3.27,2.8,5.42,3.78,2.15,.97,4.61,1.46,7.37,1.46h18.03c1.95,0,3.53-.26,4.75-.79,1.22-.53,2.44-1.44,3.65-2.74l1.1-1.34c.16-.32,.37-.63,.61-.91,.24-.28,.49-.55,.73-.79,1.87,2.11,4.08,3.74,6.64,4.87,2.56,1.14,5.38,1.71,8.47,1.71h40.69c5.93,0,10.6-1.62,14.01-4.87l32.16,8.04,4.87-5.72c1.38-1.79,2.38-3.74,2.98-5.85,.61-2.11,.71-4.26,.3-6.46Zm-42.51-3.41c-.65,1.46-1.67,2.62-3.05,3.47-1.38,.85-3.17,1.36-5.36,1.52h-12.43l1.95-24.73c.32-3.33,1.44-5.7,3.35-7.13,1.91-1.42,4.61-1.93,8.1-1.52l7.31,.85,.97,21.8c.08,2.36-.2,4.26-.85,5.73Zm8.65,2.19c.41-1.05,.67-2.19,.79-3.41s.14-2.52,.06-3.9l-.85-25.09,14.86,8.04c1.71,.81,3.11,2.09,4.2,3.84,1.1,1.75,1.85,3.84,2.25,6.27l3.78,20.71-25.09-6.46Z"/>
    </g>
  </g>
</svg>